<svg version="1.1" id="Layer_1" xmlns="http://www.w3.org/2000/svg" xmlns:xlink="http://www.w3.org/1999/xlink" x="0px" y="0px"
	 width="100%" viewBox="0 0 512 512" enable-background="new 0 0 512 512" xml:space="preserve">
<path fill="#000000" opacity="1.000000" stroke="none" 
	d="
M1.000000,179.444168 
	C14.305912,176.962784 27.558428,176.744659 40.588802,180.657272 
	C43.421165,181.507767 44.804695,180.358490 46.429680,178.383362 
	C62.443649,158.918640 82.563904,144.976517 105.645081,135.282394 
	C115.832558,131.003647 126.615822,128.673981 137.748886,128.714508 
	C140.746216,128.725418 142.596558,127.692230 144.386856,125.306427 
	C149.625412,118.325371 155.795792,112.374268 163.677460,108.236702 
	C167.823929,106.059959 170.912338,106.675446 173.861511,109.982780 
	C179.434067,116.232124 184.162521,123.056038 187.997665,130.501160 
	C190.748749,135.841843 192.018021,136.064896 196.453506,132.039276 
	C206.293747,123.108398 218.466492,121.596481 230.091995,128.646393 
	C234.638321,131.403351 238.746201,132.034943 243.716812,130.666092 
	C266.534912,124.382164 289.470520,124.387917 312.404877,130.012360 
	C315.070404,130.666061 316.967987,129.688354 318.881927,128.379272 
	C325.103729,124.123695 331.943390,123.562317 338.992859,125.240364 
	C348.713623,127.554306 353.954010,134.270126 355.469666,143.799545 
	C356.232422,148.594955 358.762238,151.103973 363.225677,152.452255 
	C365.498047,150.767868 365.997528,146.683472 369.806458,147.132111 
	C375.261780,147.774643 380.957001,148.201569 385.289612,151.957550 
	C388.142334,154.430603 390.436554,157.622940 392.667206,160.719162 
	C395.327911,164.412277 392.606354,166.815048 390.198303,169.254990 
	C384.726807,174.798859 384.511658,175.900452 389.934998,181.105148 
	C406.804688,197.294632 416.510986,217.448151 420.721222,239.924057 
	C427.887695,278.181732 426.312439,315.977661 409.369049,351.828156 
	C385.895508,401.495880 347.287231,430.582458 292.054382,436.408447 
	C291.571350,436.459412 291.103027,436.649902 289.902618,436.966583 
	C300.757324,461.022919 306.562622,486.295502 309.886688,512.613220 
	C307.629425,513.000000 305.258881,513.000000 302.444153,513.000000 
	C299.888184,492.056305 295.579803,471.610291 288.701111,451.678833 
	C283.712097,437.222839 283.921570,437.152069 268.536621,437.202545 
	C266.203949,437.210175 263.870697,437.226166 261.538727,437.183167 
	C259.626556,437.147919 257.408813,436.829437 257.333984,434.590881 
	C257.242767,431.862946 259.747101,431.727814 261.738464,431.804230 
	C270.600281,432.144257 279.320923,430.926147 288.081635,429.846771 
	C345.419800,422.781952 385.016632,392.747833 405.766266,338.659271 
	C419.659607,302.443207 420.051575,265.455841 409.904449,228.343796 
	C405.641693,212.753143 397.429688,199.163986 386.521423,186.982910 
	C378.530304,178.059341 371.620789,168.177994 361.714447,161.112885 
	C359.982300,159.877563 358.469666,158.252594 355.936920,157.761032 
	C354.062866,161.333160 353.290649,165.638885 349.700073,168.207947 
	C348.302521,169.207870 346.901062,170.433731 345.251617,169.145065 
	C343.515198,167.788483 344.454437,166.132523 345.358521,164.686035 
	C348.842499,159.111954 349.781647,152.993851 349.699036,146.524048 
	C349.620209,140.352921 347.552032,135.352478 342.015808,132.401749 
	C336.049683,129.221909 329.630157,128.729309 323.964905,132.644730 
	C316.521088,137.789368 311.562042,144.702164 312.288605,154.438629 
	C312.362946,155.435074 312.382263,156.435471 312.437561,157.433472 
	C312.515564,158.840775 312.354980,160.220840 310.818176,160.724823 
	C309.023376,161.313385 307.942139,160.045868 307.217926,158.735428 
	C304.798615,154.357849 305.333649,149.692337 306.429138,145.130005 
	C307.074860,142.440887 308.315399,139.894577 309.509338,136.691345 
	C287.179199,131.936783 265.513184,132.314285 244.060181,138.434280 
	C243.714218,141.551514 245.401260,143.202408 246.178711,145.160995 
	C247.060928,147.383530 247.656525,149.612350 247.082230,151.971176 
	C246.751785,153.328415 245.921982,154.474960 244.359634,154.446136 
	C242.987930,154.420868 242.457764,153.274124 242.069489,152.131790 
	C241.963028,151.818558 241.879913,151.487366 241.852097,151.158844 
	C240.595032,136.306961 223.250061,130.100647 212.710617,131.406265 
	C204.461426,132.428177 196.225357,141.868637 195.214951,150.994461 
	C194.391052,158.435867 193.091919,165.830032 194.955093,173.306870 
	C195.269592,174.568985 195.009857,175.962540 194.034714,177.374283 
	C187.715744,177.425522 187.751007,171.221634 185.000290,167.531815 
	C178.317017,170.905243 173.402542,176.155289 168.341873,181.117966 
	C154.543747,194.648911 142.330765,209.275879 137.477692,228.644119 
	C136.662964,231.895630 135.054977,232.287186 131.961945,230.954468 
	C113.316498,222.920670 101.972847,208.355835 94.635231,190.044861 
	C91.486755,182.187866 92.089615,174.271072 94.711334,166.595718 
	C98.092819,156.696060 104.695839,153.208008 114.973343,155.102722 
	C118.354591,155.726074 121.714737,156.463882 124.829254,157.097427 
	C125.937302,155.756241 125.379967,154.788498 125.330818,153.823013 
	C124.660576,140.657303 127.891876,136.106888 142.178009,137.487579 
	C153.037338,138.537094 163.049210,143.088211 171.658142,150.135803 
	C174.106506,152.140137 176.485352,154.230026 178.878510,156.301010 
	C182.503342,159.437851 186.080582,158.446808 186.537674,153.606171 
	C187.115021,147.491989 185.702957,141.410248 183.515320,135.686157 
	C180.696442,128.310318 175.821335,122.165825 170.639816,115.397766 
	C165.428543,121.827782 165.243988,130.205338 160.176193,137.624878 
	C156.734390,128.398849 161.603653,122.045937 163.711060,115.248505 
	C158.037445,117.999306 151.785095,124.245247 149.536392,129.408493 
	C149.790283,130.557388 150.945496,130.732986 151.661728,131.382812 
	C152.593338,132.228043 153.154434,133.218597 152.530334,134.469727 
	C151.944382,135.644363 150.871490,136.165695 149.624359,135.964706 
	C119.641617,131.132568 96.130066,145.542999 73.502029,161.963821 
	C56.769245,174.106567 45.091976,190.829605 34.061504,207.987686 
	C33.612614,208.685944 33.325394,209.491684 32.851711,210.169724 
	C31.969921,211.431961 30.926617,212.759918 29.198002,211.712418 
	C27.500103,210.683533 28.076027,209.128326 28.804615,207.748520 
	C31.369144,202.891754 33.095963,197.621277 36.166801,193.009445 
	C37.074039,191.646942 37.701061,190.097855 38.758907,188.048355 
	C26.223547,183.890808 13.967765,185.214066 1.350066,186.894775 
	C1.000000,184.629440 1.000000,182.258896 1.000000,179.444168 
M150.105377,189.654709 
	C151.313751,187.089523 155.459534,185.935471 154.211655,182.299133 
	C152.825470,178.259766 143.814941,174.460159 139.562775,175.724243 
	C126.761177,179.529968 115.291336,186.495560 102.329865,191.056168 
	C108.366249,206.588379 119.245293,217.202621 133.786407,225.896271 
	C134.937897,216.269363 143.190735,207.524765 133.525650,198.451050 
	C132.614410,197.595566 132.190231,196.159500 131.702423,194.928574 
	C130.870834,192.830124 129.140625,190.278107 132.010056,188.773590 
	C134.453293,187.492508 136.824585,188.920334 138.606201,190.930206 
	C140.453003,193.013596 141.632233,195.695831 144.207001,197.291199 
	C146.841187,195.494324 147.756363,192.460892 150.105377,189.654709 
M106.134193,161.378647 
	C99.577820,166.662567 97.005836,177.656586 100.731903,185.489090 
	C112.214615,180.303604 123.699440,175.117172 135.427979,169.820679 
	C128.691010,163.199280 114.989960,159.184311 106.134193,161.378647 
M173.886154,159.428436 
	C168.503723,154.094101 162.246262,150.015259 155.438828,146.778809 
	C150.239197,144.306763 149.474045,144.831619 149.206329,150.428070 
	C148.967911,155.412155 148.737701,160.399277 148.345261,165.372559 
	C148.010925,169.609314 152.730865,176.369598 157.930878,177.902695 
	C161.587387,178.980728 162.508774,174.891891 164.713821,173.203018 
	C164.924866,173.041397 164.923706,172.602692 165.053299,172.189926 
	C163.269547,169.083450 161.406708,165.943039 159.653091,162.742783 
	C158.733093,161.063843 158.171982,159.159882 160.008560,157.773788 
	C161.915497,156.334579 163.528152,157.653961 164.816727,158.970642 
	C167.219147,161.425476 169.475052,164.023697 171.727249,166.491364 
	C176.711716,163.464523 176.711716,163.464523 173.886154,159.428436 
M142.509155,163.134109 
	C142.769424,158.669662 142.900101,154.192932 143.321365,149.743729 
	C143.905457,143.574677 142.641861,142.352280 136.525848,143.196594 
	C133.413635,143.626236 131.803558,145.196930 131.413254,148.271622 
	C130.768021,153.354553 132.318512,157.919189 135.371979,161.738388 
	C136.868362,163.610046 139.108917,166.161606 142.509155,163.134109 
z"/>
<path fill="#000000" opacity="1.000000" stroke="none" 
	d="
M1.000000,357.449982 
	C6.881750,352.701691 11.910528,347.251587 18.566702,343.998535 
	C21.305737,342.659912 19.932455,340.748291 19.267944,338.927368 
	C12.667123,320.839386 8.524582,302.243042 8.984173,282.918060 
	C9.335700,268.136871 10.636304,253.392670 15.713110,239.313934 
	C16.523758,237.065903 16.157938,235.465469 14.638921,233.929871 
	C9.460570,228.694962 5.710518,222.393112 1.251740,216.216125 
	C1.000000,212.307098 1.000000,208.614182 1.000000,204.460632 
	C4.186346,206.210190 5.032668,210.010101 7.057082,213.008362 
	C11.525576,219.626404 15.650602,226.479202 21.111231,232.378098 
	C22.765879,234.165527 23.507750,235.941666 22.564274,238.662979 
	C14.771282,261.140747 13.602481,284.126190 17.524023,307.510193 
	C20.683624,326.350739 27.509174,343.936829 35.318363,361.216339 
	C35.650291,361.950806 36.174950,362.673492 35.079105,364.195801 
	C30.161230,359.789734 27.169630,353.975220 23.297083,348.788116 
	C14.422878,352.783112 9.194943,360.801453 1.339407,365.951416 
	C1.000000,363.299988 1.000000,360.599976 1.000000,357.449982 
z"/>
<path fill="#000000" opacity="1.000000" stroke="none" 
	d="
M242.268066,367.256958 
	C245.841736,368.995544 248.238586,371.598663 250.553253,374.190948 
	C252.792847,376.699127 254.763977,376.723694 257.434570,374.865448 
	C261.012817,372.375549 263.873138,368.388641 269.039764,368.828247 
	C269.481354,368.865784 270.077515,368.057709 270.471191,367.542603 
	C276.926910,359.096222 283.361572,350.633789 290.285950,341.537903 
	C248.177765,332.846741 206.258743,335.563263 163.885132,337.732300 
	C165.225021,344.868469 167.844742,351.315826 170.511856,357.720856 
	C176.632614,372.419586 185.249924,385.679108 194.385056,398.630402 
	C196.563263,401.718475 198.875229,404.763916 199.530502,409.169586 
	C196.006119,409.446777 194.441711,407.121979 192.796646,405.280426 
	C176.532104,387.073395 165.241150,366.090576 158.861038,342.589935 
	C157.248337,336.649689 154.630508,332.622314 148.959076,330.015076 
	C144.308716,327.877289 140.126099,324.703156 135.795670,321.896515 
	C133.691925,320.532959 131.771835,318.876312 130.496536,316.677338 
	C129.623627,315.172150 127.876915,313.389526 129.560654,311.769623 
	C131.472153,309.930603 132.824951,312.309113 134.154907,313.281250 
	C142.108292,319.095001 150.631027,323.979156 159.228622,328.733276 
	C163.391586,331.035248 167.772690,331.585724 172.672089,331.275146 
	C199.763290,329.557861 226.856308,328.719818 253.974594,331.466949 
	C266.907867,332.777100 279.647369,335.070007 292.455872,337.082397 
	C298.483734,338.029449 304.213867,336.173981 309.548187,332.997070 
	C313.011993,330.934113 316.007721,327.912079 320.012665,326.866119 
	C321.450714,328.806671 320.103088,329.690735 319.261749,330.567108 
	C315.277649,334.717163 310.566254,337.951172 305.165802,339.777802 
	C300.867432,341.231659 297.411377,343.522705 294.658600,346.993958 
	C278.307159,367.613129 262.068909,388.322266 249.052750,411.296051 
	C246.600128,415.624969 244.814850,420.329376 242.661377,424.831665 
	C241.827652,426.574738 241.517792,428.739960 239.093491,429.601898 
	C236.504547,428.200470 237.036362,425.919861 237.515579,423.620575 
	C239.809555,412.614105 245.728638,403.312195 251.574966,394.009644 
	C254.848190,388.801361 258.499542,383.830750 262.293427,378.296600 
	C260.255157,379.346527 258.684357,380.347778 256.978973,380.993805 
	C253.530991,382.299927 250.423233,381.855072 248.085236,378.675262 
	C247.690659,378.138641 247.283722,377.610352 246.865189,377.092163 
	C241.348251,370.261597 241.347473,370.262207 234.265793,375.566071 
	C222.350677,384.489868 222.123749,384.764160 210.637909,375.261688 
	C206.195526,371.586426 203.340042,371.818420 199.410233,375.467651 
	C196.666931,378.015167 193.798859,381.306976 189.150345,379.937012 
	C188.347839,376.823364 190.332809,375.335724 192.058426,373.860016 
	C194.587753,371.696991 197.636963,370.033539 199.795593,367.570770 
	C203.060974,363.845306 206.014526,364.681030 209.307571,367.136780 
	C212.642868,369.624115 216.135590,371.923309 219.298233,374.612091 
	C221.968216,376.882080 224.200241,376.767395 226.792679,374.632904 
	C229.231628,372.624725 231.818420,370.785217 234.424545,368.994324 
	C236.654068,367.462219 239.045914,366.276093 242.268066,367.256958 
z"/>
<path fill="#000000" opacity="1.000000" stroke="none" 
	d="
M214.365814,146.391693 
	C210.734756,151.146530 209.997711,156.299515 210.134842,161.737701 
	C210.182678,163.634857 210.438370,166.316940 207.623688,166.276535 
	C205.127213,166.240692 204.910553,163.771210 204.742462,161.751740 
	C204.170242,154.876663 205.528412,148.507584 210.059479,143.122726 
	C213.347595,139.215027 216.678589,138.797409 221.046036,141.479416 
	C225.525681,144.230347 229.064545,147.909576 231.534271,152.539810 
	C232.495621,154.342178 233.181274,156.720490 230.844437,157.741165 
	C228.395432,158.810867 228.010376,156.211243 227.354782,154.632767 
	C226.063431,151.523697 224.287811,148.747604 221.914536,146.377396 
	C219.592697,144.058594 217.136917,143.422455 214.365814,146.391693 
z"/>
<path fill="#000000" opacity="1.000000" stroke="none" 
	d="
M323.446777,152.844299 
	C325.109436,148.493362 327.631226,145.219330 330.831604,142.463943 
	C335.374603,138.552597 340.308655,139.483353 342.415100,144.980057 
	C344.188171,149.606964 343.968506,154.456879 342.007446,159.086685 
	C341.414307,160.487015 340.435455,161.913544 338.627838,161.357178 
	C336.686523,160.759705 337.088043,159.141861 337.464081,157.610794 
	C338.177002,154.708069 339.135040,151.803940 338.569550,148.763901 
	C337.905487,145.194214 335.598938,144.424057 332.977356,146.951965 
	C330.551971,149.290726 328.916321,152.204346 327.611450,155.299835 
	C326.926880,156.923752 326.777252,158.977966 324.259460,159.366180 
	C321.819855,157.694138 322.763397,155.412399 323.446777,152.844299 
z"/>
</svg>